#!OML:ASF E:\Style4\Style4.ASF
:FULLY-SPECIFIED
:DEGREES
2085
root 0.659643 17.1642 -2.49577 7.8373 -16.746 2.23311
lowerback 19.8248 2.88632 -2.09911
upperback 11.456 3.2656 1.44082
thorax 1.10249 1.42434 2.10979
lowerneck 3.01191 -6.83483 -6.47913
upperneck -0.807642 -9.27719 4.40901
head -0.231324 -4.66007 2.55938
rclavicle 2.3059e-014 7.95139e-015
rhumerus -21.3001 47.1561 -76.0344
rradius 70.7977
rwrist -46.8963
rhand -10.9854 8.69027
rfingers 7.12502
rthumb 15.0345 -20.7439
lclavicle 2.3059e-014 7.95139e-015
lhumerus 22.1983 -21.5705 29.0341
lradius 69.3148
lwrist 20.0132
lhand -1.46702 29.185
lfingers 7.12502
lthumb 24.1845 57.6802
rfemur -37.78 6.70781 14.6051
rtibia 47.7769
rfoot -18.6515 -4.35344
rtoes -9.78343
lfemur -32.5902 6.31709 -23.7714
ltibia 48.4363
lfoot -24.9963 13.6603
ltoes -13.4486
2086
root 0.672741 17.1309 -2.50216 7.65048 -16.5298 2.26637
lowerback 19.9193 2.76638 -2.51328
upperback 11.5329 3.04086 1.33417
thorax 1.13945 1.29435 2.27127
lowerneck 2.82585 -6.65672 -6.28824
upperneck -0.749826 -9.02252 4.551
head -0.197865 -4.5336 2.56441
rclavicle -3.93594e-014 -5.56597e-015
rhumerus -21.8107 48.7517 -74.9545
rradius 71.7937
rwrist -47.924
rhand -11.4318 8.967
rfingers 7.12502
rthumb 14.6044 -20.4988
lclavicle -3.93594e-014 -5.56597e-015
lhumerus 22.9146 -19.5704 32.0502
lradius 67.908
lwrist 16.6485
lhand -2.44335 28.5836
lfingers 7.12502
lthumb 23.2481 57.2002
rfemur -37.9401 6.52729 14.5705
rtibia 48.4175
rfoot -18.8631 -4.43485
rtoes -9.98884
lfemur -32.8003 6.32013 -23.8378
ltibia 49.0969
lfoot -25.1926 13.478
ltoes -13.6487
2087
root 0.686799 17.0959 -2.50749 7.43092 -16.2989 2.36809
lowerback 19.9081 2.69863 -2.81682
upperback 11.6814 2.90343 1.16895
thorax 1.31263 1.21236 2.29734
lowerneck 2.74661 -6.55675 -6.16774
upperneck -0.825678 -8.87702 4.91219
head -0.204879 -4.46389 2.66133
rclavicle -5.96354e-014 2.62396e-014
rhumerus -22.241 50.0191 -73.8072
rradius 72.6462
rwrist -48.9048
rhand -11.6913 9.1386
rfingers 7.12502
rthumb 14.3544 -20.3451
lclavicle -5.96354e-014 2.62396e-014
lhumerus 23.9063 -17.6759 35.2079
lradius 66.6345
lwrist 13.7321
lhand -3.58054 28.0504
lfingers 7.12502
lthumb 22.1567 56.8007
rfemur -38.0924 6.31285 14.4537
rtibia 49.0739
rfoot -19.1051 -4.4529
rtoes -10.1612
lfemur -32.9684 6.27151 -23.9779
ltibia 49.6915
lfoot -25.3817 13.3126
ltoes -13.7069
2088
root 0.700481 17.0591 -2.51406 7.24981 -16.0552 2.30542
lowerback 19.9489 2.59196 -2.99252
upperback 11.8039 2.73526 1.02893
thorax 1.43762 1.12082 2.28101
lowerneck 2.59787 -6.45332 -6.04688
upperneck -0.808764 -8.72514 5.28567
head -0.170711 -4.39061 2.75732
rclavicle -4.37326e-015 -6.36111e-015
rhumerus -22.5643 51.5043 -72.5445
rradius 73.4792
rwrist -50.1024
rhand -11.7115 8.95297
rfingers 7.12502
rthumb 14.335 -20.5321
lclavicle -4.37326e-015 -6.36111e-015
lhumerus 24.6597 -15.6901 38.681
lradius 65.5141
lwrist 11.0428
lhand -4.75127 27.2015
lfingers 7.12502
lthumb 21.0324 56.081
rfemur -38.2101 6.15613 14.5182
rtibia 49.7083
rfoot -19.367 -4.57492
rtoes -10.4036
lfemur -33.1502 6.3311 -23.946
ltibia 50.257
lfoot -25.5065 13.1318
ltoes -14.1369
2089
root 0.714553 17.0257 -2.51998 7.07546 -15.8071 2.2425
lowerback 20.0344 2.44333 -3.21928
upperback 11.8821 2.50358 0.885817
thorax 1.49452 0.996492 2.29946
lowerneck 2.4356 -6.28922 -5.84068
upperneck -0.710195 -8.49283 5.53507
head -0.123211 -4.27566 2.79573
rclavicle -1.11319e-014 -3.45885e-014
rhumerus -22.79 53.1457 -71.2249
rradius 74.2207
rwrist -51.4017
rhand -11.6092 8.84204
rfingers 7.12502
rthumb 14.4335 -20.636
lclavicle -1.11319e-014 -3.45885e-014
lhumerus 25.2512 -13.6128 42.3443
lradius 64.439
lwrist 8.64162
lhand -5.61057 26.204
lfingers 7.12502
lthumb 20.2067 55.173
rfemur -38.3066 6.00468 14.5788
rtibia 50.3296
rfoot -19.6386 -4.6824
rtoes -10.5358
lfemur -33.3107 6.34379 -23.9002
ltibia 50.802
lfoot -25.7103 12.8295
ltoes -13.9444
2090
root 0.729148 16.994 -2.52503 6.96911 -15.5471 2.20803
lowerback 20.05 2.31932 -3.44481
upperback 11.9511 2.30696 0.723741
thorax 1.57587 0.890363 2.29214
lowerneck 2.26012 -6.13791 -5.63793
upperneck -0.651696 -8.27726 5.895
head -0.0800147 -4.16941 2.87217
rclavicle 4.01545e-014 -1.03368e-014
rhumerus -22.996 54.4257 -69.8949
rradius 74.9369
rwrist -52.3834
rhand -11.1203 8.47478
rfingers 7.12502
rthumb 14.9046 -20.969
lclavicle 4.01545e-014 -1.03368e-014
lhumerus 25.9509 -11.6221 46.1328
lradius 63.3859
lwrist 6.80436
lhand -6.27146 25.4415
lfingers 7.12502
lthumb 19.5714 54.4764
rfemur -38.4792 5.83736 14.602
rtibia 50.9269
rfoot -19.8381 -4.85411
rtoes -11.0939
lfemur -33.5417 6.3005 -23.8869
ltibia 51.3414
lfoot -25.927 12.5264
ltoes -13.5182
2091
root 0.744226 16.9597 -2.52925 6.8361 -15.2876 2.1819
lowerback 20.1133 2.18865 -3.67013
upperback 12.0208 2.09968 0.555244
thorax 1.63567 0.779227 2.27837
lowerneck 2.0815 -5.98553 -5.6119
upperneck -0.561755 -8.06677 6.43756
head -0.0105508 -4.06596 3.04155
rclavicle -2.08724e-014 -1.19271e-015
rhumerus -23.1071 55.6304 -68.4182
rradius 75.7065
rwrist -53.2292
rhand -10.3521 7.71526
rfingers 7.12502
rthumb 15.6446 -21.6722
lclavicle -2.08724e-014 -1.19271e-015
lhumerus 26.5441 -9.62978 50.0907
lradius 62.4264
lwrist 5.57459
lhand -6.97997 24.523
lfingers 7.12502
lthumb 18.8901 53.6257
rfemur -38.626 5.68429 14.6074
rtibia 51.4981
rfoot -20.0047 -5.01188
rtoes -11.6238
lfemur -33.7462 6.24618 -23.8796
ltibia 51.8774
lfoot -26.1342 12.2082
ltoes -13.1371
2092
root 0.759964 16.9275 -2.5326 6.69963 -15.0159 2.11397
lowerback 20.1203 2.0363 -3.87398
upperback 12.1412 1.87115 0.411673
thorax 1.78141 0.654925 2.28471
lowerneck 1.96741 -5.84211 -5.67807
upperneck -0.584538 -7.87077 7.06457
head 0.0196465 -3.97111 3.26331
rclavicle 4.69132e-014 -2.62396e-014
rhumerus -22.933 56.7355 -66.6833
rradius 76.3663
rwrist -54.0992
rhand -9.39138 7.06069
rfingers 7.12502
rthumb 16.5697 -22.2519
lclavicle 4.69132e-014 -2.62396e-014
lhumerus 27.0689 -7.62349 54.1546
lradius 61.612
lwrist 5.1276
lhand -7.78646 23.5333
lfingers 7.12502
lthumb 18.1143 52.7099
rfemur -38.7261 5.50313 14.6547
rtibia 52.0155
rfoot -20.1804 -5.07112
rtoes -11.829
lfemur -33.9359 6.28417 -23.8667
ltibia 52.4253
lfoot -26.244 12.0543
ltoes -13.481
2093
root 0.775536 16.8983 -2.53785 6.57136 -14.6698 2.04119
lowerback 20.1333 1.86774 -4.03346
upperback 12.2496 1.62963 0.259347
thorax 1.91342 0.527392 2.25807
lowerneck 1.96602 -5.71132 -5.63679
upperneck -0.734119 -7.68862 7.65337
head -0.0166671 -3.88594 3.46153
rclavicle 2.28602e-015 -1.13307e-014
rhumerus -22.726 57.6363 -64.993
rradius 76.8479
rwrist -54.8701
rhand -8.12795 6.48975
rfingers 7.12502
rthumb 17.7857 -22.7169
lclavicle 2.28602e-015 -1.13307e-014
lhumerus 27.4836 -5.96713 58.0623
lradius 61.0357
lwrist 6.081
lhand -8.72752 23.3685
lfingers 7.12502
lthumb 17.2087 52.6265
rfemur -38.7847 5.28559 14.7086
rtibia 52.455
rfoot -20.3625 -5.23569
rtoes -12.3565
lfemur -34.1386 6.28536 -23.8448
ltibia 52.9687
lfoot -26.3348 11.8601
ltoes -13.7406
2094
root 0.791229 16.8718 -2.54348 6.52894 -14.2779 1.85987
lowerback 20.163 1.67569 -4.03915
upperback 12.2845 1.38171 0.112074
thorax 1.95754 0.408122 2.14961
lowerneck 1.98354 -5.55954 -5.50869
upperneck -0.852011 -7.47728 8.18242
head -0.0556682 -3.78665 3.62497
rclavicle 6.4605e-016 -4.49253e-014
rhumerus -22.5977 58.4669 -63.4007
rradius 77.2783
rwrist -55.4658
rhand -6.57435 5.34905
rfingers 7.12502
rthumb 19.2802 -23.7152
lclavicle 6.4605e-016 -4.49253e-014
lhumerus 27.7238 -4.74536 61.6956
lradius 60.5774
lwrist 8.5161
lhand -10.1384 23.8589
lfingers 7.12502
lthumb 15.8504 53.2301
rfemur -38.8884 5.10551 14.8707
rtibia 52.8371
rfoot -20.5003 -5.45322
rtoes -12.6121
lfemur -34.3955 6.19613 -23.6917
ltibia 53.4656
lfoot -26.422 11.608
ltoes -13.7401
2095
root 0.80583 16.8478 -2.54711 6.49802 -13.9319 1.61695
lowerback 20.1871 1.50466 -4.06402
upperback 12.3076 1.15827 0.0375985
thorax 1.98728 0.297452 2.12483
lowerneck 2.09994 -5.37018 -5.49114
upperneck -1.01165 -7.2185 8.68499
head -0.127184 -3.66601 3.80646
rclavicle -6.73383e-015 1.44864e-014
rhumerus -22.2547 59.3717 -61.5114
rradius 77.701
rwrist -56.0388
rhand -4.72204 3.89544
rfingers 7.12502
rthumb 21.0605 -24.9809
lclavicle -6.73383e-015 1.44864e-014
lhumerus 27.8392 -3.57 65.4372
lradius 59.9555
lwrist 11.8205
lhand -11.8054 23.9683
lfingers 7.12502
lthumb 14.2446 53.4598
rfemur -38.9655 4.97722 15.0988
rtibia 53.1974
rfoot -20.5608 -5.60474
rtoes -12.244
lfemur -34.598 6.14489 -23.4691
ltibia 53.8814
lfoot -26.4393 11.3338
ltoes -13.7946
2096
root 0.820217 16.8245 -2.5497 6.36016 -13.6531 1.5212
lowerback 20.2597 1.36788 -4.24258
upperback 12.3648 0.951769 -0.0353899
thorax 2.02938 0.185504 2.18486
lowerneck 2.10434 -5.20184 -5.64212
upperneck -1.03532 -6.99469 9.20766
head -0.126963 -3.55906 4.02119
rclavicle -1.56046e-014 6.11263e-015
rhumerus -21.5783 60.2931 -59.2495
rradius 78.0471
rwrist -56.6609
rhand -3.01388 3.29659
rfingers 7.12502
rthumb 22.7006 -25.3881
lclavicle -1.56046e-014 6.11263e-015
lhumerus 27.9163 -2.23093 69.354
lradius 59.2193
lwrist 15.5089
lhand -12.2109 24.1478
lfingers 7.12502
lthumb 13.8537 53.6664
rfemur -38.9634 4.84651 15.1737
rtibia 53.5626
rfoot -20.6362 -5.73019
rtoes -12.0949
lfemur -34.5951 6.06578 -23.4068
ltibia 54.1856
lfoot -26.439 11.1499
ltoes -14.5633
